<?xml version="1.0" standalone="no"?>
<!DOCTYPE svg PUBLIC "-//W3C//DTD SVG 20010904//EN"
 "http://www.w3.org/TR/2001/REC-SVG-20010904/DTD/svg10.dtd">
<svg version="1.0" xmlns="http://www.w3.org/2000/svg"
 width="800.000000pt" height="800.000000pt" viewBox="0 0 800.000000 800.000000"
 preserveAspectRatio="xMidYMid meet">
<metadata>
Created by potrace 1.14, written by Peter Selinger 2001-2017
</metadata>
<g transform="translate(0.000000,800.000000) scale(0.100000,-0.100000)"
fill="#000000" stroke="none">
<path d="M3757 5793 c-4 -3 -35 -7 -69 -9 -250 -10 -338 -16 -578 -40 -73 -7
-289 -33 -320 -39 -15 -3 -79 -13 -130 -20 -27 -4 -63 -10 -120 -20 -19 -3
-53 -10 -75 -15 -22 -5 -56 -12 -75 -15 -32 -6 -189 -40 -235 -52 -11 -2 -36
-8 -55 -13 -317 -73 -730 -220 -1019 -364 -542 -268 -891 -604 -1000 -961 -28
-91 -33 -120 -35 -240 -7 -263 107 -507 351 -751 164 -164 398 -327 653 -454
58 -29 116 -58 130 -65 14 -7 77 -34 140 -59 63 -26 124 -51 135 -56 140 -62
668 -215 880 -254 17 -3 44 -8 60 -12 97 -19 178 -35 212 -39 21 -4 63 -10 93
-15 30 -6 73 -12 95 -15 63 -7 128 -16 155 -21 14 -2 50 -7 80 -9 30 -3 73 -7
95 -10 80 -9 141 -15 210 -19 174 -12 285 -19 345 -19 36 -1 68 -6 72 -12 5
-6 8 -5 8 4 0 11 3 11 15 1 11 -9 15 -9 15 -1 0 7 5 9 12 5 19 -12 98 -11 98
1 0 7 3 7 8 0 8 -12 61 -13 78 -3 6 4 14 4 18 0 11 -11 90 -9 98 3 5 7 8 7 8
-1 0 -11 70 -11 89 0 6 4 11 2 11 -5 0 -8 4 -8 16 2 13 10 17 10 25 -2 5 -8 9
-9 9 -4 0 6 19 11 43 11 53 1 313 14 347 19 14 1 66 6 115 9 50 4 101 9 115
11 14 2 56 6 93 10 37 3 78 8 89 10 12 3 44 7 72 10 51 6 66 8 166 25 30 5 71
11 90 14 41 7 85 14 120 21 14 3 39 8 55 11 17 3 91 19 165 35 74 17 142 32
150 34 8 2 42 10 75 19 33 9 71 19 83 22 49 10 372 112 427 134 39 16 58 24
130 51 211 79 568 262 690 352 16 12 64 47 105 77 103 76 122 92 225 196 223
226 338 466 339 709 1 124 -7 181 -34 270 -159 513 -805 973 -1765 1255 -130
39 -302 84 -357 94 -13 2 -41 9 -63 14 -22 6 -55 14 -73 17 -18 3 -63 12 -101
20 -38 8 -97 19 -132 25 -35 5 -73 12 -84 14 -11 2 -42 7 -68 10 -27 4 -56 9
-65 10 -10 2 -44 7 -77 11 -32 4 -67 8 -77 10 -17 4 -71 10 -185 21 -32 3 -76
7 -97 10 -59 6 -138 12 -471 30 -172 10 -515 10 -515 0 0 -5 -6 -3 -13 3 -8 6
-17 8 -20 4z"/>
</g>
</svg>
